<svg width="27" height="27" viewBox="0 0 27 27" fill="none" xmlns="http://www.w3.org/2000/svg">
<path d="M11.7994 13.125L9.14812 10.4737C8.97734 10.2969 8.88285 10.0601 8.88498 9.81431C8.88712 9.5685 8.98572 9.33336 9.15954 9.15954C9.33336 8.98572 9.56849 8.88713 9.8143 8.88499C10.0601 8.88286 10.2969 8.97735 10.4737 9.14812L13.125 11.7994L15.7762 9.14812C15.8627 9.05858 15.9662 8.98716 16.0805 8.93803C16.1949 8.88889 16.3179 8.86303 16.4424 8.86195C16.5669 8.86087 16.6904 8.88459 16.8056 8.93173C16.9208 8.97887 17.0255 9.04848 17.1135 9.1365C17.2015 9.22453 17.2711 9.3292 17.3183 9.44442C17.3654 9.55963 17.3891 9.68308 17.388 9.80756C17.387 9.93204 17.3611 10.0551 17.312 10.1694C17.2628 10.2838 17.1914 10.3873 17.1019 10.4737L14.4506 13.125L17.1019 15.7762C17.1914 15.8627 17.2628 15.9662 17.312 16.0806C17.3611 16.1949 17.387 16.318 17.388 16.4424C17.3891 16.5669 17.3654 16.6904 17.3183 16.8056C17.2711 16.9208 17.2015 17.0255 17.1135 17.1135C17.0255 17.2015 16.9208 17.2711 16.8056 17.3183C16.6904 17.3654 16.5669 17.3891 16.4424 17.388C16.3179 17.387 16.1949 17.3611 16.0805 17.312C15.9662 17.2628 15.8627 17.1914 15.7762 17.1019L13.125 14.4506L10.4737 17.1019C10.2969 17.2726 10.0601 17.3671 9.8143 17.365C9.56849 17.3629 9.33336 17.2643 9.15954 17.0905C8.98572 16.9166 8.88712 16.6815 8.88498 16.4357C8.88285 16.1899 8.97734 15.9531 9.14812 15.7762L11.7994 13.125Z" fill="#7CA5FF"/>
<path d="M13.125 24.375C14.6024 24.375 16.0653 24.084 17.4302 23.5186C18.7951 22.9533 20.0353 22.1246 21.08 21.08C22.1246 20.0353 22.9533 18.7951 23.5186 17.4302C24.084 16.0653 24.375 14.6024 24.375 13.125C24.375 11.6476 24.084 10.1847 23.5186 8.81981C22.9533 7.4549 22.1246 6.21471 21.08 5.17005C20.0353 4.12539 18.7951 3.29672 17.4302 2.73136C16.0653 2.16599 14.6024 1.875 13.125 1.875C10.1413 1.875 7.27983 3.06026 5.17005 5.17005C3.06026 7.27983 1.875 10.1413 1.875 13.125C1.875 16.1087 3.06026 18.9702 5.17005 21.08C7.27983 23.1897 10.1413 24.375 13.125 24.375ZM13.125 26.25C9.64403 26.25 6.30564 24.8672 3.84422 22.4058C1.38281 19.9444 0 16.606 0 13.125C0 9.64403 1.38281 6.30564 3.84422 3.84422C6.30564 1.38281 9.64403 0 13.125 0C16.606 0 19.9444 1.38281 22.4058 3.84422C24.8672 6.30564 26.25 9.64403 26.25 13.125C26.25 16.606 24.8672 19.9444 22.4058 22.4058C19.9444 24.8672 16.606 26.25 13.125 26.25Z" fill="#7CA5FF"/>
</svg>
