<svg width="40" height="40" viewBox="0 0 31 31" fill="none" xmlns="http://www.w3.org/2000/svg">
<g clip-path="url(#clip0_7_2)">
<path fill-rule="evenodd" clip-rule="evenodd" d="M15.7571 0.131058C7.4696 0.131058 0.757095 6.84356 0.757095 15.1311C0.757095 21.7686 5.05085 27.3748 11.0133 29.3623C11.7633 29.4936 12.0446 29.0436 12.0446 28.6498C12.0446 28.2936 12.0258 27.1123 12.0258 25.8561C8.2571 26.5498 7.2821 24.9373 6.9821 24.0936C6.81335 23.6623 6.0821 22.3311 5.4446 21.9748C4.9196 21.6936 4.1696 20.9998 5.42585 20.9811C6.6071 20.9623 7.45085 22.0686 7.7321 22.5186C9.0821 24.7873 11.2383 24.1498 12.1008 23.7561C12.2321 22.7811 12.6258 22.1248 13.0571 21.7498C9.7196 21.3748 6.2321 20.0811 6.2321 14.3436C6.2321 12.7123 6.81335 11.3623 7.7696 10.3123C7.6196 9.93731 7.0946 8.39981 7.9196 6.33731C7.9196 6.33731 9.17584 5.94356 12.0446 7.87481C13.2446 7.53731 14.5196 7.36856 15.7946 7.36856C17.0696 7.36856 18.3446 7.53731 19.5446 7.87481C22.4133 5.92481 23.6696 6.33731 23.6696 6.33731C24.4946 8.39981 23.9696 9.93731 23.8196 10.3123C24.7758 11.3623 25.3571 12.6936 25.3571 14.3436C25.3571 20.0998 21.8508 21.3748 18.5133 21.7498C19.0571 22.2186 19.5258 23.1186 19.5258 24.5248C19.5258 26.5311 19.5071 28.1436 19.5071 28.6498C19.5071 29.0436 19.7883 29.5123 20.5383 29.3623C23.5161 28.357 26.1036 26.4432 27.9367 23.8903C29.7698 21.3374 30.7562 18.2739 30.7571 15.1311C30.7571 6.84356 24.0446 0.131058 15.7571 0.131058Z" fill="white"/>
</g>
<defs>
<clipPath id="clip0_7_2">
<rect width="30" height="30" fill="white" transform="translate(0.757095 0.131058)"/>
</clipPath>
</defs>
</svg>
