<svg width="43" height="43" viewBox="0 0 43 43" fill="none" xmlns="http://www.w3.org/2000/svg">
<path fill-rule="evenodd" clip-rule="evenodd" d="M5.31753e-07 3.59246C5.31753e-07 2.63968 0.37849 1.72593 1.05221 1.05221C1.72592 0.378494 2.63968 4.78925e-06 3.59245 4.78925e-06H39.4036C39.8758 -0.00076638 40.3435 0.0916005 40.7799 0.271817C41.2163 0.452033 41.6129 0.71656 41.947 1.05025C42.281 1.38395 42.546 1.78025 42.7267 2.21648C42.9074 2.65271 43.0003 3.12029 43 3.59246V39.4036C43.0005 39.8759 42.9079 40.3436 42.7275 40.7801C42.547 41.2165 42.2823 41.6131 41.9485 41.9471C41.6146 42.2811 41.2182 42.5461 40.7819 42.7267C40.3455 42.9074 39.8778 43.0003 39.4056 43H3.59245C3.12052 43 2.65321 42.907 2.21723 42.7264C1.78125 42.5457 1.38513 42.2809 1.05151 41.9471C0.717899 41.6133 0.453321 41.217 0.272899 40.781C0.0924759 40.3449 -0.000256232 39.8775 5.31753e-07 39.4056V3.59246ZM17.0202 16.3947H22.8428V19.3187C23.6832 17.6378 25.8332 16.125 29.0641 16.125C35.258 16.125 36.7259 19.4731 36.7259 25.6163V36.9956H30.4577V27.0157C30.4577 23.5171 29.6172 21.543 27.4829 21.543C24.5217 21.543 23.2904 23.6715 23.2904 27.0157V36.9956H17.0202V16.3947ZM6.27018 36.7279H12.5404V16.125H6.27018V36.7259V36.7279ZM13.4375 9.40528C13.4493 9.94214 13.3538 10.476 13.1565 10.9754C12.9592 11.4748 12.6642 11.9298 12.2887 12.3137C11.9132 12.6976 11.4648 13.0026 10.9698 13.2108C10.4748 13.419 9.94324 13.5263 9.40625 13.5263C8.86926 13.5263 8.33768 13.419 7.8427 13.2108C7.34773 13.0026 6.89933 12.6976 6.52382 12.3137C6.14831 11.9298 5.85326 11.4748 5.65599 10.9754C5.45871 10.476 5.36318 9.94214 5.375 9.40528C5.3982 8.35149 5.83312 7.34869 6.58659 6.61162C7.34007 5.87455 8.35221 5.46182 9.40625 5.46182C10.4603 5.46182 11.4724 5.87455 12.2259 6.61162C12.9794 7.34869 13.4143 8.35149 13.4375 9.40528Z" fill="white"/>
</svg>
